# xmcd CD database file
#
# Track frame offsets:
#	150
#	23279
#	48834
#	70695
#	99325
#	125856
#	150991
#	163736
#	187185
#	207788
#	232247
#
# Disc length: 3451 seconds
#
# Revision: 1
# Processed by: cddbd v1.4PL0 Copyright (c) Steve Scherf et al.
# Submitted via: CDex 1.51
#
DISCID=8b0d790b
DTITLE=Kadu Lambach - Last Blues
DYEAR=1997
DGENRE=Blues
TTITLE0=Last Blues
TTITLE1=Conexão Nikiti
TTITLE2=Kung Fu
TTITLE3=Elefante Blues
TTITLE4=Aurora
TTITLE5=Praça Vermelha
TTITLE6=Fumanchu
TTITLE7=Cláudia Maria
TTITLE8=Tribal
TTITLE9=Código Morse
TTITLE10=Regando Chuva
EXTD=YEAR: 1997
EXTT0=
EXTT1=
EXTT2=
EXTT3=
EXTT4=
EXTT5=
EXTT6=
EXTT7=
EXTT8=
EXTT9=
EXTT10=
PLAYORDER=
